<?xml version="1.0" standalone="no"?><!DOCTYPE svg PUBLIC "-//W3C//DTD SVG 1.1//EN" "http://www.w3.org/Graphics/SVG/1.1/DTD/svg11.dtd"><svg class="icon" width="200px" height="200.00px" viewBox="0 0 1024 1024" version="1.1" xmlns="http://www.w3.org/2000/svg"><path d="M465.621333 469.333333l-97.813333-114.133333a21.333333 21.333333 0 1 1 32.384-27.733333L512 457.856l111.786667-130.432a21.333333 21.333333 0 1 1 32.426666 27.776L558.357333 469.333333h81.493334c11.84 0 21.461333 9.472 21.461333 21.333334 0 11.776-9.6 21.333333-21.482667 21.333333H533.333333v85.333333h106.517334c11.861333 0 21.482667 9.472 21.482666 21.333334 0 11.776-9.6 21.333333-21.482666 21.333333H533.333333v127.850667c0 11.861333-9.472 21.482667-21.333333 21.482666-11.776 0-21.333333-9.578667-21.333333-21.482666V640h-106.517334A21.354667 21.354667 0 0 1 362.666667 618.666667c0-11.776 9.6-21.333333 21.482666-21.333334H490.666667v-85.333333h-106.517334A21.354667 21.354667 0 0 1 362.666667 490.666667c0-11.776 9.6-21.333333 21.482666-21.333334h81.472zM298.666667 127.957333C298.666667 104.405333 317.824 85.333333 341.12 85.333333h341.76C706.304 85.333333 725.333333 104.490667 725.333333 127.957333v42.752A42.645333 42.645333 0 0 1 682.88 213.333333H341.12C317.696 213.333333 298.666667 194.176 298.666667 170.709333V127.957333zM341.333333 170.666667h341.333334V128H341.333333v42.666667z m-105.173333-42.666667v42.666667H170.752L170.666667 895.893333 853.333333 896V170.773333L789.909333 170.666667V128h63.296C876.842667 128 896 147.072 896 170.773333v725.12C896 919.509333 877.013333 938.666667 853.333333 938.666667H170.666667a42.666667 42.666667 0 0 1-42.666667-42.773334V170.773333C128 147.157333 147.114667 128 170.752 128h65.408z" /></svg>