<?xml version="1.0" standalone="no"?><!DOCTYPE svg PUBLIC "-//W3C//DTD SVG 1.1//EN" "http://www.w3.org/Graphics/SVG/1.1/DTD/svg11.dtd"><svg class="icon" width="200px" height="179.18px" viewBox="0 0 1143 1024" version="1.1" xmlns="http://www.w3.org/2000/svg"><path d="M578.22580465 410.768061H907.87852965v502.915082H578.22580465z" /><path d="M140.85191365 1024c-11.842839 0-21.414449-9.57161-21.414449-21.414449v-700.836502c0-11.842839 9.57161-21.414449 21.414449-21.414448H1003.59462565c11.842839 0 21.414449 9.57161 21.414449 21.414448V1024h-884.157161z m77.384031-676.17744c-17.196451 0-31.148289 13.951838-31.148289 31.148289V925.03929c0 17.196451 13.951838 31.148289 31.148289 31.148289h708.136882c17.196451 0 31.148289-13.951838 31.148289-31.148289V379.13308c0-17.196451-13.951838-31.148289-31.148289-31.148289H218.23594465z" /><path d="M736.72517065 318.621039c-5.353612 0-10.382763-2.43346-13.627376-6.813688L588.60856765 132.704689c-5.191381-6.813688-12.978454-10.707224-21.414449-10.707224-8.760456 0-17.034221 4.217997-21.90114 11.518378l-123.619772 176.831432c-3.244613 4.542459-8.435995 7.30038-13.951838 7.30038-3.569075 0-6.813688-1.135615-9.73384-3.082383l-27.416984-19.143219c-7.624842-5.353612-9.57161-16.060837-4.217997-23.685678L550.97105165 7.30038c3.244613-4.704689 8.273764-7.30038 13.951838-7.30038 5.353612 0 10.382763 2.43346 13.627376 6.813688l198.570343 264.273764c2.757921 3.569075 3.893536 8.111534 3.244613 12.653993s-3.082383 8.435995-6.651457 11.193916L746.94570365 315.051965c-2.920152 2.271229-6.489227 3.569075-10.220533 3.569074zM491.43239565 814.722433c-9.73384 0-18.980989-4.217997-25.307985-11.356147l-113.39924-128c-6.002535-6.813688-8.922687-15.411914-8.435994-24.496831 0.486692-9.084918 4.542459-17.196451 11.356147-23.198986 6.164766-5.515843 14.114068-8.435995 22.387832-8.435995 9.73384 0 18.818758 4.217997 25.307985 11.356147l62.945501 71.057034c8.273764 9.247148 20.116603 14.60076 32.608365 14.600761 10.382763 0 20.441065-3.731305 28.228137-10.544994L740.78093765 523.031686c6.164766-5.191381 13.951838-8.111534 21.901141-8.111534 9.896071 0 19.30545 4.380228 25.632446 11.842839 5.840304 6.975919 8.760456 15.574144 8.111534 24.659062-0.648923 8.922687-4.86692 17.196451-11.680609 23.036756L513.33353565 806.6109c-6.002535 5.353612-13.789607 8.111534-21.90114 8.111533z" /></svg>