<?xml version="1.0" standalone="no"?><!DOCTYPE svg PUBLIC "-//W3C//DTD SVG 1.1//EN" "http://www.w3.org/Graphics/SVG/1.1/DTD/svg11.dtd"><svg class="icon" width="200px" height="200.00px" viewBox="0 0 1024 1024" version="1.1" xmlns="http://www.w3.org/2000/svg"><path d="M290.133333 365.226667V273.066667c-3.413333-116.053333 98.986667-215.04 225.28-204.8 92.16 6.826667 167.253333 78.506667 184.32 170.666666 3.413333 20.48 3.413333 40.96 3.413334 64.853334v61.44h92.16c20.48 0 34.133333 10.24 40.96 30.72 23.893333 105.813333 51.2 215.04 75.093333 320.853333 13.653333 64.853333 30.72 126.293333 44.373333 191.146667 6.826667 27.306667-10.24 47.786667-37.546666 47.786666H109.226667c-27.306667 0-44.373333-23.893333-37.546667-51.2 40.96-170.666667 81.92-341.333333 122.88-508.586666 6.826667-20.48 17.066667-30.72 40.96-30.72h54.613333z m580.266667 515.413333c0-3.413333 0-6.826667-3.413333-10.24-34.133333-139.946667-68.266667-283.306667-102.4-423.253333-3.413333-6.826667-3.413333-10.24-13.653334-10.24H266.24c-10.24 0-10.24 3.413333-13.653333 10.24-30.72 126.293333-61.44 252.586667-88.746667 378.88l-10.24 51.2c238.933333 3.413333 477.866667 3.413333 716.8 3.413333zM365.226667 365.226667h266.24V269.653333c0-13.653333-3.413333-27.306667-6.826667-40.96-20.48-61.44-88.746667-95.573333-153.6-78.506666-58.026667 13.653333-98.986667 58.026667-102.4 112.64-6.826667 30.72-3.413333 64.853333-3.413333 102.4z" /><path d="M665.6 709.973333c-44.373333 30.72-88.746667 27.306667-116.053333-3.413333-27.306667-30.72-27.306667-78.506667-3.413334-109.226667 30.72-37.546667 64.853333-40.96 116.053334-10.24v-17.066666h47.786666V709.973333c3.413333 71.68-61.44 102.4-112.64 92.16-20.48-3.413333-40.96-6.826667-54.613333-23.893333 6.826667-10.24 10.24-20.48 17.066667-34.133333 20.48 13.653333 40.96 20.48 64.853333 17.066666 27.306667-3.413333 40.96-20.48 40.96-51.2z m-6.826667-61.44c0-27.306667-17.066667-44.373333-40.96-44.373333s-44.373333 17.066667-44.373333 44.373333 17.066667 44.373333 44.373333 44.373334c23.893333-3.413333 44.373333-23.893333 40.96-44.373334zM512 737.28h-54.613333c-3.413333 0-6.826667-6.826667-10.24-10.24-20.48-23.893333-37.546667-51.2-58.026667-75.093333-17.066667 13.653333-27.306667 27.306667-23.893333 47.786666 3.413333 13.653333 0 23.893333 0 37.546667H317.44v-218.453333h44.373333v88.746666l10.24-10.24c20.48-23.893333 44.373333-47.786667 64.853334-71.68 3.413333-3.413333 13.653333-6.826667 17.066666-6.826666h51.2c-10.24 13.653333-20.48 23.893333-30.72 34.133333-13.653333 17.066667-27.306667 34.133333-44.373333 47.786667-10.24 10.24-10.24 17.066667 0 30.72 23.893333 30.72 47.786667 61.44 68.266667 92.16 6.826667 0 10.24 6.826667 13.653333 13.653333z" /></svg>