<?xml version="1.0" standalone="no"?><!DOCTYPE svg PUBLIC "-//W3C//DTD SVG 1.1//EN" "http://www.w3.org/Graphics/SVG/1.1/DTD/svg11.dtd"><svg class="icon" width="200px" height="200.00px" viewBox="0 0 1024 1024" version="1.1" xmlns="http://www.w3.org/2000/svg"><path d="M672 364.8 576 364.8l38.4-38.4c12.8-12.8 12.8-25.6 0-38.4-12.8-12.8-25.6-12.8-38.4 0L512 358.4 441.6 288c-12.8-12.8-25.6-12.8-38.4 0-12.8 12.8-12.8 25.6 0 38.4L448 364.8 358.4 364.8c-38.4 0-64 32-64 64 0 32 19.2 57.6 51.2 64l0 211.2c0 12.8 12.8 25.6 25.6 25.6l300.8 0c12.8 0 25.6-12.8 25.6-25.6L697.6 499.2c25.6-6.4 51.2-32 51.2-64C742.4 396.8 710.4 364.8 672 364.8L672 364.8zM358.4 448C345.6 448 339.2 441.6 339.2 435.2c0-6.4 6.4-19.2 19.2-19.2l134.4 0L492.8 448 358.4 448 358.4 448zM640 684.8 390.4 684.8 390.4 499.2l102.4 0 0 108.8c0 12.8 12.8 25.6 25.6 25.6 12.8 0 25.6-12.8 25.6-25.6L544 499.2 640 499.2 640 684.8 640 684.8zM672 448 544 448 544 416l134.4 0c6.4 0 19.2 6.4 19.2 19.2C691.2 441.6 684.8 448 672 448L672 448zM512 0C230.4 0 0 230.4 0 512s230.4 512 512 512c281.6 0 512-230.4 512-512S793.6 0 512 0L512 0zM505.6 985.6c-262.4 0-473.6-211.2-473.6-473.6 0-262.4 211.2-473.6 473.6-473.6 262.4 0 473.6 211.2 473.6 473.6C979.2 774.4 768 985.6 505.6 985.6L505.6 985.6zM505.6 985.6" /></svg>