<?xml version="1.0" standalone="no"?><!DOCTYPE svg PUBLIC "-//W3C//DTD SVG 1.1//EN" "http://www.w3.org/Graphics/SVG/1.1/DTD/svg11.dtd"><svg class="icon" width="200px" height="200.00px" viewBox="0 0 1024 1024" version="1.1" xmlns="http://www.w3.org/2000/svg"><path d="M950.857143 402.285714h-51.748572a403.2 403.2 0 0 0-36.571428-86.308571l36.571428-36.571429a73.142857 73.142857 0 0 0 0-103.314285l-51.017142-51.931429a73.142857 73.142857 0 0 0-103.314286 0l-36.571429 36.571429A393.691429 393.691429 0 0 0 621.714286 125.074286V73.142857a73.142857 73.142857 0 0 0-73.142857-73.142857h-73.142858a73.142857 73.142857 0 0 0-73.142857 73.142857v51.931429a393.691429 393.691429 0 0 0-86.308571 35.657143l-36.571429-36.571429a73.142857 73.142857 0 0 0-103.314285 0L124.16 175.908571a73.142857 73.142857 0 0 0 0 103.314286l36.571429 36.571429a403.2 403.2 0 0 0-36.571429 86.308571H73.142857a73.142857 73.142857 0 0 0-73.142857 73.142857v73.142857a73.142857 73.142857 0 0 0 73.142857 73.142858h51.748572a403.2 403.2 0 0 0 36.571428 86.308571l-36.571428 36.571429a73.142857 73.142857 0 0 0 0 103.314285l51.748571 51.748572a73.142857 73.142857 0 0 0 103.314286 0l36.571428-36.571429A393.691429 393.691429 0 0 0 402.285714 898.925714V950.857143a73.142857 73.142857 0 0 0 73.142857 73.142857h73.142858a73.142857 73.142857 0 0 0 73.142857-73.142857v-51.931429a393.691429 393.691429 0 0 0 86.308571-35.657143l36.571429 36.571429a73.142857 73.142857 0 0 0 103.314285 0l51.748572-51.748571a73.142857 73.142857 0 0 0 0-103.314286l-36.571429-36.571429a403.2 403.2 0 0 0 36.571429-86.308571H950.857143a73.142857 73.142857 0 0 0 73.142857-73.142857V475.428571a73.142857 73.142857 0 0 0-73.142857-73.142857zM617.142857 613.668571a146.285714 146.285714 0 1 1-3.474286-206.811428 146.285714 146.285714 0 0 1 3.474286 206.811428z" /></svg>