<?xml version="1.0" standalone="no"?><!DOCTYPE svg PUBLIC "-//W3C//DTD SVG 1.1//EN" "http://www.w3.org/Graphics/SVG/1.1/DTD/svg11.dtd"><svg class="icon" width="200px" height="200.00px" viewBox="0 0 1024 1024" version="1.1" xmlns="http://www.w3.org/2000/svg"><path d="M360.9 665.7c0-165.2 138.6-300.4 308.1-300.4 66.8 0 123.2 20 174.6 55.1V180.1c0-45.1-35.9-80.1-82.2-80.1H181.2C135 100 99 135 99 180.1v640.8c0 45.1 35.9 80.1 82.2 80.1H479c-71.9-55.1-118.1-140.2-118.1-235.3z m-61.6-465.6v-10c0-15 10.3-25 25.7-25 10.3 0 25.7 10 25.7 20v10c5.1 65.1 56.5 115.1 123.2 115.1S597.1 255.1 597.1 185c0-15 10.3-25 25.7-25 15.4 0 25.7 10 25.7 25 0 95.1-77 175.2-169.4 175.2-97.7 5.1-174.7-70-179.8-160.1z" /><path d="M668.9 448.8c-128.4 0-231.1 99.4-231.1 223.6S540.6 896 668.9 896 900 796.7 900 672.4 797.3 448.8 668.9 448.8z m92.5 347.9H576.5c-15.4 0-25.7-9.9-25.7-24.8s10.3-24.8 25.7-24.8h184.8c15.4 0 25.7 9.9 25.7 24.8s-10.2 24.8-25.6 24.8z m0-99.4H576.5c-15.4 0-25.7-9.9-25.7-24.8s10.3-24.8 25.7-24.8h184.8c15.4 0 25.7 9.9 25.7 24.8s-10.2 24.8-25.6 24.8z m0-99.4H576.5c-15.4 0-25.7-9.9-25.7-24.8s10.3-24.8 25.7-24.8h184.8c15.4 0 25.7 9.9 25.7 24.8s-10.2 24.8-25.6 24.8z" /></svg>