<?xml version="1.0" standalone="no"?><!DOCTYPE svg PUBLIC "-//W3C//DTD SVG 1.1//EN" "http://www.w3.org/Graphics/SVG/1.1/DTD/svg11.dtd"><svg class="icon" width="200px" height="200.00px" viewBox="0 0 1024 1024" version="1.1" xmlns="http://www.w3.org/2000/svg"><path d="M511.2 114.5c48.6 0 95.7 4.1 139.8 12.2 41.8 7.6 79 18.5 110.7 32.1 28.7 12.4 51.6 26.8 66 41.6 7.2 7.4 15.8 18.4 15.8 29.4s-8.6 22-15.8 29.4c-14.5 14.8-37.3 29.2-66 41.6-31.6 13.7-68.9 24.5-110.7 32.1-44.2 8.1-91.2 12.2-139.8 12.2s-95.7-4.1-139.8-12.2c-41.8-7.6-79-18.5-110.7-32.1-28.7-12.4-51.6-26.8-66-41.6-7.2-7.4-15.8-18.4-15.8-29.4s8.6-22 15.8-29.4c14.5-14.8 37.3-29.2 66-41.6 31.6-13.7 68.9-24.5 110.7-32.1 44.2-8.1 91.2-12.2 139.8-12.2m0-50c-211.2 0-382.3 74-382.3 165.3S300.1 395 511.2 395s382.3-74 382.3-165.3S722.4 64.5 511.2 64.5zM512.4 586.5c-98.5 0-191.5-15.3-261.8-43.2-35.7-14.2-64.1-31-84.4-50-23.5-22-36-47.4-36-73.3h50c0 26.1 33.2 54.8 88.8 76.8 64.6 25.6 151 39.7 243.4 39.7s178.8-14.1 243.4-39.7c55.6-22 88.8-50.7 88.8-76.8h50c0 25.9-12.4 51.3-36 73.3-20.3 19-48.7 35.8-84.4 50-70.3 27.9-163.3 43.2-261.8 43.2zM511.7 775.4c-98.4 0-191.3-13.9-261.5-39.1-35.7-12.8-64.1-28.1-84.4-45.3-30.5-25.9-37-51.8-37-69h50.1c0 17.2 23.2 43.9 88.2 67.3 64.9 23.3 151.8 36.1 244.6 36.1 92.8 0 179.6-12.8 244.6-36.1 65.1-23.3 88.2-50.1 88.2-67.3h50.1c0 17.2-6.4 43.1-37 69-20.3 17.2-48.7 32.5-84.4 45.3-70.2 25.2-163.1 39.1-261.5 39.1zM511.7 953.2c-98.4 0-191.2-13.7-261.5-38.7-35.7-12.7-64.1-27.8-84.4-44.9-30.6-25.7-37-51.5-37-68.7h50c0 16.9 23.2 43.3 88.2 66.4 65 23.1 151.9 35.8 244.7 35.8 92.8 0 179.7-12.7 244.7-35.8 65-23.1 88.2-49.5 88.2-66.4h50c0 17.1-6.4 42.9-37 68.7-20.3 17.1-48.7 32.2-84.4 44.9-70.3 25-163.1 38.7-261.5 38.7z"  /><path d="M159.6 823H153c-13.4 0-24.3-10.9-24.3-24.3V235.3c0-13.4 10.9-24.3 24.3-24.3h6.6c10.5 0 19.1 8.6 19.1 19.1v573.8c0 10.5-8.6 19.1-19.1 19.1zM875.5 825.3h-6.6c-13.4 0-24.3-10.9-24.3-24.3V238.6c0-13.4 10.9-24.3 24.3-24.3h6.6c10.5 0 19.1 8.6 19.1 19.1v572.8c0 10.5-8.6 19.1-19.1 19.1zM758.5 393c-17.4 0-31.5 14.1-31.5 31.5s14.1 31.5 31.5 31.5 31.5-14.1 31.5-31.5-14.1-31.5-31.5-31.5zM758.5 583c-17.4 0-31.5 14.1-31.5 31.5s14.1 31.5 31.5 31.5 31.5-14.1 31.5-31.5-14.1-31.5-31.5-31.5zM758.5 771c-17.4 0-31.5 14.1-31.5 31.5s14.1 31.5 31.5 31.5 31.5-14.1 31.5-31.5-14.1-31.5-31.5-31.5z"  /></svg>