<?xml version="1.0" standalone="no"?><!DOCTYPE svg PUBLIC "-//W3C//DTD SVG 1.1//EN" "http://www.w3.org/Graphics/SVG/1.1/DTD/svg11.dtd"><svg class="icon" width="200px" height="200.00px" viewBox="0 0 1024 1024" version="1.1" xmlns="http://www.w3.org/2000/svg"><path d="M909.024 142a94.832 94.832 0 0 0-43.584-61.792 105.408 105.408 0 0 0-76.8-14.048 100.176 100.176 0 0 0-65.008 41.424l-101.216 144.64-343.552 492.208a31.456 31.456 0 0 0-5.168 11.2v1.408l-33.984 166.4a26.08 26.08 0 0 0 4.304 23.232 31.472 31.472 0 0 0 19.952 12.64 21.472 21.472 0 0 0 6.656 0.704 29.824 29.824 0 0 0 16.992-4.912l152.192-94.096a29.136 29.136 0 0 0 9.6-9.136l340.592-487.296 104.912-149.552a93.68 93.68 0 0 0 14.112-73.024zM737.616 332.272L400.72 814.656l-86.4 53.36 19.2-94.784 340.592-488 101.216-144.64a40 40 0 0 1 25.12-16.144 41.712 41.712 0 0 1 30.288 5.616 37.888 37.888 0 0 1 16.992 23.872 36.464 36.464 0 0 1-5.92 28.8z" /><path d="M488.736 250.976h-387.2a36.944 36.944 0 0 1 0-73.888h387.2a36.944 36.944 0 1 1 0 73.888z" /><path d="M372.8 545.808H100.944a36.944 36.944 0 0 1 0-73.888H372.8a36.944 36.944 0 1 1 0 73.888z" /><path d="M229.536 854.352H101.712a36.944 36.944 0 0 1 0-73.888h127.824a36.944 36.944 0 0 1 0 73.888z" /><path d="M923.056 854.352H703.632a36.944 36.944 0 1 1 0-73.888h219.424A36.576 36.576 0 0 1 960 817.408a37.04 37.04 0 0 1-36.944 36.944z" /><path d="M922.976 529.28h-116.8a36.944 36.944 0 1 1 0-73.888h116.8a36.576 36.576 0 0 1 36.944 36.944 37.056 37.056 0 0 1-36.944 36.944z" /></svg>