<?xml version="1.0" standalone="no"?><!DOCTYPE svg PUBLIC "-//W3C//DTD SVG 1.1//EN" "http://www.w3.org/Graphics/SVG/1.1/DTD/svg11.dtd"><svg class="icon" width="200px" height="200.00px" viewBox="0 0 1024 1024" version="1.1" xmlns="http://www.w3.org/2000/svg"><path d="M912.672138 94.488178c-8.524813-8.524813-17.049627-25.57444-34.099253-34.099253-8.524813-8.524813-17.049627-25.57444-25.574439-34.099253a46.886473 46.886473 0 0 0-42.624067-25.57444H247.736704a63.879267 63.879267 0 0 0-42.624066 8.524813c-8.524813 8.524813-17.049627 8.524813-25.57444 17.049627l-25.574439 25.574439-42.624067 42.624067c-8.524813 17.049627-25.57444 34.099253-34.099253 51.148879h878.055766c-17.049627-17.049627-25.57444-34.099253-42.624067-51.148879z m8.524814 571.162488H102.814879a104.201634 104.201634 0 0 0-76.723319 25.57444 113.380016 113.380016 0 0 0-25.57444 68.198506v161.971451a83.088513 83.088513 0 0 0 34.099253 76.72332 96.785047 96.785047 0 0 0 68.198506 25.57444h809.857259a104.201634 104.201634 0 0 0 76.72332-25.57444 96.785047 96.785047 0 0 0 25.574439-68.198506v-170.496265a96.785047 96.785047 0 0 0-25.574439-68.198506c-8.524813-17.049627-34.099253-25.57444-68.198506-25.57444zM597.254048 870.246184c-8.524813 8.524813-8.524813 8.524813-17.049627 8.524813h-127.872198a31.257649 31.257649 0 0 1-25.57444-8.524813c0-8.524813-8.524813-17.049627-8.524813-25.57444s0-17.049627 8.524813-17.049626c8.524813-8.524813 8.524813-8.524813 25.57444-8.524814h119.347385c8.524813 0 17.049627 0 17.049627 8.524814 8.524813 8.524813 8.524813 8.524813 8.524813 17.049626 8.524813 8.524813 0 17.049627 0 25.57444zM997.920271 264.984443a104.201634 104.201634 0 0 0-76.723319-25.57444H102.814879a104.201634 104.201634 0 0 0-76.723319 25.57444 77.376888 77.376888 0 0 0-25.57444 59.673693v170.496265a96.813463 96.813463 0 0 0 25.57444 68.198506 104.201634 104.201634 0 0 0 76.723319 25.57444h818.382073a104.201634 104.201634 0 0 0 76.723319-25.57444 96.813463 96.813463 0 0 0 25.57444-68.198506v-170.496265a77.376888 77.376888 0 0 0-25.57444-59.673693z m-426.240663 179.021078h-119.347385c-8.524813 0-17.049627 0-17.049627-8.524813a65.555814 65.555814 0 0 1-17.049626-25.57444c0-8.524813 0-17.049627 8.524813-17.049626 8.524813-8.524813 8.524813-8.524813 25.57444-8.524814h119.347385c8.524813 0 17.049627 0 17.049627 8.524814a18.328349 18.328349 0 0 1 17.049626 17.049626c-8.524813 25.57444-17.049627 34.099253-34.099253 34.099253z" /></svg>