<?xml version="1.0" standalone="no"?><!DOCTYPE svg PUBLIC "-//W3C//DTD SVG 1.1//EN" "http://www.w3.org/Graphics/SVG/1.1/DTD/svg11.dtd"><svg class="icon" width="200px" height="200.00px" viewBox="0 0 1024 1024" version="1.1" xmlns="http://www.w3.org/2000/svg"><path d="M774.4 598.1v49.2c2.4 24.7-15.7 46.6-40.4 49-24.7 2.4-46.6-15.7-49-40.4-0.3-2.9-0.3-5.8 0-8.6v-49.2H338.9v49.2c2.4 24.7-15.7 46.6-40.4 49-24.7 2.4-46.6-15.7-49-40.4-0.3-2.9-0.3-5.8 0-8.6v-49.2H65.3v233.8c0 61.5 44.7 110.8 100.5 110.8h692.3c55.8 0 100.5-49.2 100.5-110.8V598.1H774.4zM294.3 481.2c25.5 0.8 45.6 22.2 44.7 47.7 0 0.5 0 1-0.1 1.5h346.2c0.5-25.2 19.6-46.2 44.7-49.2 25.5 0.8 45.6 22.2 44.7 47.7 0 0.5 0 1-0.1 1.5h184.2V345.9c0-61.5-44.7-110.8-100.5-110.8H740.9V192c0-61.5-44.7-110.8-100.5-110.8H383.6c-55.8 0-100.5 49.2-100.5 110.8v49.2H165.8C110 241.3 65.3 290.5 65.3 352v184.6c61.4 0 122.8-6.2 184.2-6.2 0.6-25.2 19.7-46.2 44.8-49.2z m87.5-332.1c0.6 0 1.2-0.1 1.8-0.1h256.8c22.2 0.6 39.8 19.1 39.2 41.3 0 0.6 0 1.2-0.1 1.8v49.2h-335v-49.2c-1.6-22.2 15.1-41.5 37.3-43z" /></svg>