<?xml version="1.0" standalone="no"?><!DOCTYPE svg PUBLIC "-//W3C//DTD SVG 1.1//EN" "http://www.w3.org/Graphics/SVG/1.1/DTD/svg11.dtd"><svg class="icon" width="200px" height="200.00px" viewBox="0 0 1024 1024" version="1.1" xmlns="http://www.w3.org/2000/svg"><path d="M918.816 423.872a32 32 0 0 0-45.248-0.384c-23.552 23.168-45.92 41.6-67.296 55.552A95.296 95.296 0 0 0 768 453.888V224a32 32 0 0 0-64 0v229.888a95.744 95.744 0 0 0-50.272 41.344c-4.544-2.56-9.184-4.672-13.632-7.84a643.936 643.936 0 0 1-74.016-61.824 1464.672 1464.672 0 0 1-14.88-14.4l-14.176-13.888c-11.456-11.168-19.712-18.88-28.032-26.048-20.8-17.952-41.056-30.72-63.104-39.136a95.904 95.904 0 0 0-189.728 18.368c-32.256 17.664-62.016 42.72-88.928 75.584a32 32 0 0 0 49.536 40.512c19.04-23.296 39.328-41.248 60.8-54.624a95.68 95.68 0 0 0 42.432 30.176V672a32 32 0 0 0 64 0v-229.888a95.52 95.52 0 0 0 51.712-44.032c10.336 5.472 20.544 12.16 31.488 21.6 7.136 6.144 14.56 13.088 25.152 23.424l14.08 13.792c5.984 5.856 10.688 10.432 15.456 14.976 27.136 25.92 51.744 46.816 81.088 67.68 12.672 9.024 25.632 16.224 38.784 21.92A95.904 95.904 0 0 0 832 544c0-1.92-0.448-3.712-0.576-5.6 28.544-17.312 57.6-40.352 87.008-69.28a32 32 0 0 0 0.384-45.248z"  /><path d="M960 266.208V160a96 96 0 0 0-96-96H160a96 96 0 0 0-96 96v576a96 96 0 0 0 96 96h320v64H256a32 32 0 0 0 0 64h512a32 32 0 0 0 0-64h-224v-64h320a96 96 0 0 0 96-96v-87.008a32 32 0 0 0-64 0V736a32 32 0 0 1-32 32H160a32 32 0 0 1-32-32V160a32 32 0 0 1 32-32h704a32 32 0 0 1 32 32v106.208a32 32 0 0 0 64 0z"  /></svg>