<?xml version="1.0" standalone="no"?><!DOCTYPE svg PUBLIC "-//W3C//DTD SVG 1.1//EN" "http://www.w3.org/Graphics/SVG/1.1/DTD/svg11.dtd"><svg class="icon" width="200px" height="195.42px" viewBox="0 0 1048 1024" version="1.1" xmlns="http://www.w3.org/2000/svg"><path d="M1025.368876 600.534088L675.339152 247.444523 508.899898 415.49422l-22.868287-22.62672L675.339152 201.70795l372.898011 376.199418-22.868287 22.62672z" /><path d="M622.275065 428.538806l-59.505858-35.268695-58.378549 27.780137-13.849807-29.068491 73.838798-35.188174 57.895416 34.30243 58.781159-34.785562 58.781159 34.785562L798.53802 356.310451l66.994417 39.61689-16.426516 27.699615L798.53802 393.753244l-58.700637 34.785562-58.781159-34.785562-58.781159 34.785562zM546.262169 81.971534l-28.021703-16.104427a128.835417 128.835417 0 0 1 211.370606-19.405835l-24.639774 20.694189a96.626563 96.626563 0 0 0-158.709129 14.816073zM1027.059841 857.882834H45.495007v-32.208854h904.263584L711.81568 585.637493 603.352363 695.067076 445.609499 535.874813l22.868287-22.707242 134.874577 136.162931 108.463317-109.429582 315.244161 317.981914zM113.133601 905.551938h136.323975v32.208855H113.133601zM291.006999 905.551938h429.182983v32.208855h-429.182983zM137.129197 991.791146h288.993945v32.208854H137.129197zM475.644256 991.791146h70.13478v32.208854H475.644256zM20.694189 905.551938h53.54722v32.208855H20.694189z" /><path d="M166.197688 785.33239a166.197688 166.197688 0 0 1 0-332.395377A163.218369 163.218369 0 0 1 248.974444 475.080601l-16.104427 27.780137a130.928993 130.928993 0 0 0-66.511285-18.036959 133.988834 133.988834 0 0 0 0 267.977668 131.170559 131.170559 0 0 0 93.808289-39.21428L283.196351 736.616498a163.218369 163.218369 0 0 1-116.998663 48.715892z" /><path d="M139.86695 560.031454h32.208854v300.991743h-32.208854z" /><path d="M80.014846 628.290068l22.876339-22.675033 64.514335 65.069938-22.876339 22.683086zM348.338759 774.220335a123.520956 123.520956 0 0 1-122.957301-123.843045V230.212786a122.957301 122.957301 0 1 1 245.83408 0v420.164504a123.520956 123.520956 0 0 1-122.876779 123.843045z m0-635.641739a91.312102 91.312102 0 0 0-90.748447 91.63419v420.164504a90.748447 90.748447 0 1 0 181.416372 0V230.212786a91.312102 91.312102 0 0 0-90.667925-91.63419z" /><path d="M332.234332 164.667768h32.208854v696.274907h-32.208854z" /><path d="M336.864355 670.676921l64.522387-65.061886 22.868287 22.675033-64.522388 65.061886z" /><path d="M272.358072 628.298121l22.868286-22.675034 64.514336 65.07799-22.868287 22.675034zM336.816042 546.391004l64.522387-65.061885 22.868286 22.675033-64.522387 65.061886z" /><path d="M272.325863 504.06857l22.876339-22.675034 64.514335 65.069938-22.868287 22.675034zM336.904616 422.241975l64.522387-65.061885 22.868287 22.675033-64.522388 65.061886z" /><path d="M272.366124 379.895384l22.868287-22.683086 64.514335 65.077991-22.868287 22.675033zM336.84825 298.036581l64.522388-65.061886 22.868286 22.675034-64.522387 65.069938z" /><path d="M272.341967 255.657781l22.868287-22.675033 64.514335 65.07799-22.868286 22.675033zM911.671621 294.630495a102.343635 102.343635 0 1 1 101.618935-102.343635 102.102068 102.102068 0 0 1-101.618935 102.343635z m0-172.478415a70.13478 70.13478 0 1 0 69.410081 70.13478 69.812692 69.812692 0 0 0-69.410081-70.13478zM587.40898 124.970355h-32.208854a39.053236 39.053236 0 1 0-78.02595 0h-32.208854a71.26209 71.26209 0 1 1 142.443658 0zM791.774161 124.970355h-32.208855a58.700637 58.700637 0 0 0-58.298026-58.942204v-32.208854a90.909491 90.909491 0 0 1 90.506881 91.151058z" /></svg>